<?xml version="1.0" encoding="UTF-8" standalone="no"?>
<!-- Created with Inkscape (http://www.inkscape.org/) -->

<svg
   xmlns:dc="http://purl.org/dc/elements/1.1/"
   xmlns:cc="http://creativecommons.org/ns#"
   xmlns:rdf="http://www.w3.org/1999/02/22-rdf-syntax-ns#"
   xmlns:svg="http://www.w3.org/2000/svg"
   xmlns="http://www.w3.org/2000/svg"
   xmlns:sodipodi="http://sodipodi.sourceforge.net/DTD/sodipodi-0.dtd"
   xmlns:inkscape="http://www.inkscape.org/namespaces/inkscape"
   width="210mm"
   height="297mm"
   viewBox="0 0 744.09448819 1052.3622047"
   id="svg6317"
   version="1.1"
   inkscape:version="0.91 r13725"
   sodipodi:docname="ros_robots.svg">
  <defs
     id="defs6319" />
  <sodipodi:namedview
     id="base"
     pagecolor="#ffffff"
     bordercolor="#666666"
     borderopacity="1.0"
     inkscape:pageopacity="0.0"
     inkscape:pageshadow="2"
     inkscape:zoom="4.6871134"
     inkscape:cx="371.42857"
     inkscape:cy="564.28571"
     inkscape:document-units="px"
     inkscape:current-layer="g2063"
     showgrid="false"
     inkscape:window-width="2560"
     inkscape:window-height="1416"
     inkscape:window-x="0"
     inkscape:window-y="24"
     inkscape:window-maximized="1" />
  <metadata
     id="metadata6322">
    <rdf:RDF>
      <cc:Work
         rdf:about="">
        <dc:format>image/svg+xml</dc:format>
        <dc:type
           rdf:resource="http://purl.org/dc/dcmitype/StillImage" />
        <dc:title></dc:title>
      </cc:Work>
    </rdf:RDF>
  </metadata>
  <g
     inkscape:label="Layer 1"
     inkscape:groupmode="layer"
     id="layer1">
    <g
       transform="matrix(1.25,0,0,-1.25,-223.25999,674.6045)"
       style="clip-rule:evenodd;fill-rule:evenodd"
       id="g2040">
      <g
         id="g49836"
         transform="matrix(0.267736,0,0,0.267736,330.328,129.895)">
        <path
           inkscape:connector-curvature="0"
           id="path39880-58"
           d="m 170.304,181.765 c 0,-4.824 -3.785,-8.735 -8.453,-8.735 -4.667,0 -8.452,3.911 -8.452,8.735 0,4.824 3.785,8.735 8.452,8.735 4.668,0 8.453,-3.911 8.453,-8.735 z"
           style="fill:#22314e;fill-rule:nonzero" />
        <path
           inkscape:connector-curvature="0"
           id="path39882-53"
           d="m 170.304,151.999 c 0,-4.824 -3.785,-8.735 -8.453,-8.735 -4.667,0 -8.452,3.911 -8.452,8.735 0,4.824 3.785,8.735 8.452,8.735 4.668,0 8.453,-3.911 8.453,-8.735 z"
           style="fill:#22314e;fill-rule:nonzero" />
        <path
           inkscape:connector-curvature="0"
           id="path39884-74"
           d="m 170.304,122.233 c 0,-4.824 -3.785,-8.735 -8.453,-8.735 -4.667,0 -8.452,3.911 -8.452,8.735 0,4.824 3.785,8.735 8.452,8.735 4.668,0 8.453,-3.911 8.453,-8.735 z"
           style="fill:#22314e;fill-rule:nonzero" />
        <path
           inkscape:connector-curvature="0"
           id="path39888-0"
           d="m 199.798,181.765 c 0,-4.824 -3.785,-8.735 -8.453,-8.735 -4.667,0 -8.452,3.911 -8.452,8.735 0,4.824 3.785,8.735 8.452,8.735 4.668,0 8.453,-3.911 8.453,-8.735 z"
           style="fill:#22314e;fill-rule:nonzero" />
        <path
           inkscape:connector-curvature="0"
           id="path39890-2"
           d="m 229.292,151.999 c 0,-4.824 -3.785,-8.735 -8.452,-8.735 -4.668,0 -8.453,3.911 -8.453,8.735 0,4.824 3.785,8.735 8.453,8.735 4.667,0 8.452,-3.911 8.452,-8.735 z"
           style="fill:#22314e;fill-rule:nonzero" />
        <path
           inkscape:connector-curvature="0"
           id="path39892-17"
           d="m 229.292,181.765 c 0,-4.824 -3.785,-8.735 -8.452,-8.735 -4.668,0 -8.453,3.911 -8.453,8.735 0,4.824 3.785,8.735 8.453,8.735 4.667,0 8.452,-3.911 8.452,-8.735 z"
           style="fill:#22314e;fill-rule:nonzero" />
        <path
           inkscape:connector-curvature="0"
           id="path39894-6"
           d="m 229.292,122.233 c 0,-4.824 -3.785,-8.735 -8.452,-8.735 -4.668,0 -8.453,3.911 -8.453,8.735 0,4.824 3.785,8.735 8.453,8.735 4.667,0 8.452,-3.911 8.452,-8.735 z"
           style="fill:#22314e;fill-rule:nonzero" />
        <path
           inkscape:connector-curvature="0"
           id="path39896-4"
           d="m 199.798,122.233 c 0,-4.824 -3.785,-8.735 -8.453,-8.735 -4.667,0 -8.452,3.911 -8.452,8.735 0,4.824 3.785,8.735 8.452,8.735 4.668,0 8.453,-3.911 8.453,-8.735 z"
           style="fill:#22314e;fill-rule:nonzero" />
        <g
           transform="matrix(0.983707,0,0,-1.01656,244.073,113.69)"
           id="g2051">
          <g
             id="text39898-1">
            <text
               x="0"
               y="0"
               style="font-size:107.67199707px;font-family:InterstateMono, 'Interstate Mono';fill:#22314e"
               id="text2054">R<tspan
   x="72.893997 147.619"
   y="0 0"
   id="tspan2056">OS</tspan>
</text>
          </g>
        </g>
        <path
           inkscape:connector-curvature="0"
           id="path39882-53-3"
           d="m 199.798,151.999 c 0,-4.824 -3.785,-8.735 -8.453,-8.735 -4.667,0 -8.452,3.911 -8.452,8.735 0,4.824 3.785,8.735 8.452,8.735 4.668,0 8.453,-3.911 8.453,-8.735 z"
           style="clip-rule:evenodd;fill:#22314e;fill-rule:nonzero" />
      </g>
      <g
         transform="matrix(0.257953,0,0,-0.257953,299.409,231.127)"
         id="g2063">
        <text
           x="609.401"
           y="275.84399"
           style="font-size:50px;font-family:Interstate-Regular, Interstate;fill:#afafaf"
           id="text2065">Robots</text>
      </g>
    </g>
  </g>
</svg>
