<?xml version="1.0" encoding="UTF-8" standalone="no"?>
<!DOCTYPE svg PUBLIC "-//W3C//DTD SVG 1.1//EN" "http://www.w3.org/Graphics/SVG/1.1/DTD/svg11.dtd">
<svg width="100%" height="100%" viewBox="0 0 32 32" version="1.1" xmlns="http://www.w3.org/2000/svg" xmlns:xlink="http://www.w3.org/1999/xlink" xml:space="preserve" style="fill-rule:evenodd;clip-rule:evenodd;stroke-linejoin:round;stroke-miterlimit:1.41421;">
    <g transform="matrix(1,0,0,1,-577.246,-662.271)">
        <g transform="matrix(1.25,0,0,-1.25,0,1052.36)">
            <g id="g47182" transform="matrix(1.24175,0,0,1.24175,-241.53,11.6818)">
                <path id="path39880-6-8" d="M570.926,239.569C570.926,238.278 569.913,237.231 568.663,237.231C567.413,237.231 566.4,238.278 566.4,239.569C566.4,240.861 567.413,241.908 568.663,241.908C569.913,241.908 570.926,240.861 570.926,239.569Z" style="fill:rgb(34,49,78);fill-rule:nonzero;"/>
                <path id="path39882-50-9" d="M570.926,231.6C570.926,230.308 569.913,229.261 568.663,229.261C567.413,229.261 566.4,230.308 566.4,231.6C566.4,232.891 567.413,233.938 568.663,233.938C569.913,233.938 570.926,232.891 570.926,231.6Z" style="fill:rgb(34,49,78);fill-rule:nonzero;"/>
                <path id="path39884-18-5" d="M570.926,223.63C570.926,222.339 569.913,221.292 568.663,221.292C567.413,221.292 566.4,222.339 566.4,223.63C566.4,224.922 567.413,225.969 568.663,225.969C569.913,225.969 570.926,224.922 570.926,223.63Z" style="fill:rgb(34,49,78);fill-rule:nonzero;"/>
                <path id="path39886-7-9" d="M578.823,231.6C578.823,230.308 577.809,229.261 576.56,229.261C575.31,229.261 574.297,230.308 574.297,231.6C574.297,232.891 575.31,233.938 576.56,233.938C577.809,233.938 578.823,232.891 578.823,231.6Z" style="fill:rgb(34,49,78);fill-rule:nonzero;"/>
                <path id="path39888-1-6" d="M578.823,239.569C578.823,238.278 577.809,237.231 576.56,237.231C575.31,237.231 574.297,238.278 574.297,239.569C574.297,240.861 575.31,241.908 576.56,241.908C577.809,241.908 578.823,240.861 578.823,239.569Z" style="fill:rgb(34,49,78);fill-rule:nonzero;"/>
                <path id="path39890-59-5" d="M586.719,231.6C586.719,230.308 585.706,229.261 584.456,229.261C583.207,229.261 582.193,230.308 582.193,231.6C582.193,232.891 583.207,233.938 584.456,233.938C585.706,233.938 586.719,232.891 586.719,231.6Z" style="fill:rgb(34,49,78);fill-rule:nonzero;"/>
                <path id="path39892-6-2" d="M586.719,239.569C586.719,238.278 585.706,237.231 584.456,237.231C583.207,237.231 582.193,238.278 582.193,239.569C582.193,240.861 583.207,241.908 584.456,241.908C585.706,241.908 586.719,240.861 586.719,239.569Z" style="fill:rgb(34,49,78);fill-rule:nonzero;"/>
                <path id="path39894-9-4" d="M586.719,223.63C586.719,222.339 585.706,221.292 584.456,221.292C583.207,221.292 582.193,222.339 582.193,223.63C582.193,224.922 583.207,225.969 584.456,225.969C585.706,225.969 586.719,224.922 586.719,223.63Z" style="fill:rgb(34,49,78);fill-rule:nonzero;"/>
                <path id="path39896-5-8" d="M578.823,223.63C578.823,222.339 577.809,221.292 576.56,221.292C575.31,221.292 574.297,222.339 574.297,223.63C574.297,224.922 575.31,225.969 576.56,225.969C577.809,225.969 578.823,224.922 578.823,223.63Z" style="fill:rgb(34,49,78);fill-rule:nonzero;"/>
            </g>
        </g>
    </g>
</svg>
